<?xml version="1.0" encoding="UTF-8"?>
<svg xmlns="http://www.w3.org/2000/svg" version="1.1" viewBox="0 0 792 612">
  <defs>
    <style>
      .cls-1 {
        stroke: #272525;
        stroke-width: 28px;
      }

      .cls-1, .cls-2, .cls-3, .cls-4, .cls-5 {
        fill: none;
        stroke-miterlimit: 10;
      }

      .cls-2 {
        stroke: #e0922f;
        stroke-width: 40px;
      }

      .cls-3 {
        stroke: #cc2229;
        stroke-width: 5.5px;
      }

      .cls-6 {
        fill: #fff;
      }

      .cls-7 {
        fill: #e0922f;
      }

      .cls-8 {
        fill: #4675b8;
      }

      .cls-4 {
        stroke-width: 21px;
      }

      .cls-4, .cls-5 {
        stroke: #4675b8;
      }

      .cls-5 {
        stroke-width: 5.66px;
      }

      .cls-9 {
        fill: #272525;
      }

      .cls-10 {
        display: none;
      }
    </style>
  </defs>
  <!-- Generator: Adobe Illustrator 28.7.1, SVG Export Plug-In . SVG Version: 1.2.0 Build 142)  -->
  <g>

    <g id="Layer_4">

      <g>
        <path class="cls-7" d="M382.7,538.48l-225.47-265.67h83.48l-.88-73.04h-61.79s-87.67-91.79-87.67-91.79h292.33v91.1l-49.47.51,2.32,122.22,47.15,55.17v161.49ZM243.65,312.81l99.06,116.72v-37.78l-46.87-54.84-3.36-176.9,50.23-.51v-11.5h-158.81l11.26,11.79h84.2s1.85,153.04,1.85,153.04h-37.55Z"/>
        <path class="cls-9" d="M376.7,522.14l-206.51-243.32h76.59l-1.03-85.04h-65.15s-76.21-79.79-76.21-79.79h272.31v79.16l-49.59.51,2.48,130.43,47.11,55.12v142.94ZM230.68,306.82l118.02,139.06v-56.34l-46.91-54.89-3.21-168.7,50.12-.51v-23.44h-178.84l22.72,23.79h80.84s1.71,141.04,1.71,141.04h-44.44Z"/>
        <polygon class="cls-6" points="362.7 484.01 362.7 384.37 315.69 329.36 312.85 179.8 362.7 179.29 362.7 127.99 137.13 127.99 186.59 179.78 259.59 179.78 260.96 292.82 200.44 292.82 362.7 484.01"/>
      </g>
      <g>
        <polygon class="cls-2" points="417.51 483.82 417.51 128.18 476.09 128.18 475.44 205.37 524.16 183.45 525.66 128.18 644.17 128.18 581.26 210.59 496.12 250.34 581.26 293 500.31 387.33 497.95 318.14 464.33 298.4 467.29 425.81 417.51 483.82"/>
        <polygon class="cls-1" points="417.51 483.82 417.51 128.18 476.09 128.18 475.44 205.37 524.16 183.45 525.66 128.18 644.17 128.18 581.26 210.59 496.12 250.34 581.26 293 500.31 387.33 497.95 318.14 464.33 298.4 467.29 425.81 417.51 483.82"/>
        <polygon class="cls-6" points="417.51 483.82 417.51 128.18 476.09 128.18 475.44 205.37 524.16 183.45 525.66 128.18 644.17 128.18 581.26 210.59 496.12 250.34 581.26 293 500.31 387.33 497.95 318.14 464.33 298.4 467.29 425.81 417.51 483.82"/>
      </g>
    </g>
  </g>
</svg>